<svg xmlns="http://www.w3.org/2000/svg" width="1920" height="1080" viewBox="0 0 1920 1080" preserveAspectRatio="xMidYMid slice">
  <defs>
    <linearGradient id="sunset" x1="0%" y1="0%" x2="0%" y2="100%">
      <stop offset="0%" stop-color="#ffb3a7"/>
      <stop offset="50%" stop-color="#ff6f91"/>
      <stop offset="100%" stop-color="#42275a"/>
    </linearGradient>
  </defs>
  <rect width="1920" height="1080" fill="url(#sunset)"/>
  <circle cx="420" cy="260" r="140" fill="#ffd7c4" opacity="0.7"/>
  <g fill="#2f1d3d" opacity="0.85">
    <path d="M0 720 L240 540 L420 680 L620 520 L880 760 L1100 600 L1400 780 L1600 560 L1920 760 L1920 1080 L0 1080 Z"/>
    <path d="M0 860 L200 700 L480 880 L760 660 L1080 900 L1340 740 L1600 900 L1920 780 L1920 1080 L0 1080 Z" opacity="0.6"/>
  </g>
  <g fill="#ffd7c4" opacity="0.3">
    <circle cx="300" cy="180" r="6" />
    <circle cx="520" cy="120" r="4" />
    <circle cx="760" cy="200" r="5" />
    <circle cx="980" cy="140" r="3" />
    <circle cx="1240" cy="180" r="5" />
    <circle cx="1500" cy="130" r="4" />
  </g>
</svg>
